<svg width="28" height="28" viewBox="0 0 28 28" fill="none" xmlns="http://www.w3.org/2000/svg">
<g clip-path="url(#clip0_13_1765)">
<path d="M26.4261 11.8043L26.4698 11.8139H7.73347L13.6235 5.91086C13.9119 5.62266 14.0701 5.23226 14.0701 4.8225C14.0701 4.41274 13.9119 4.02507 13.6235 3.73619L12.707 2.81925C12.4188 2.53105 12.0348 2.3717 11.6252 2.3717C11.2155 2.3717 10.8312 2.52992 10.543 2.81811L0.446413 12.9138C0.157079 13.2032 -0.00113211 13.5886 6.09885e-06 13.9985C-0.00113211 14.4108 0.157079 14.7964 0.446413 15.0853L10.543 25.1819C10.8312 25.4699 11.2153 25.6283 11.6252 25.6283C12.0348 25.6283 12.4188 25.4697 12.707 25.1819L13.6235 24.265C13.9119 23.9772 14.0701 23.593 14.0701 23.1832C14.0701 22.7737 13.9119 22.4097 13.6235 22.1217L7.667 16.1857H26.447C27.2909 16.1857 28 15.4584 28 14.615V13.3181C28 12.4747 27.27 11.8043 26.4261 11.8043Z" fill="white"/>
</g>
<defs>
<clipPath id="clip0_13_1765">
<rect width="28" height="28" rx="5" fill="white"/>
</clipPath>
</defs>
</svg>
