<svg width="100" height="100" viewBox="0 0 100 100" fill="none" xmlns="http://www.w3.org/2000/svg">
<g clip-path="url(#clip0_63_7498)">
<mask id="mask0_63_7498" style="mask-type:luminance" maskUnits="userSpaceOnUse" x="0" y="0" width="100" height="100">
<path d="M0 0.000289917H99.9997V100H0V0.000289917Z" fill="white"/>
</mask>
<g mask="url(#mask0_63_7498)">
<path fill-rule="evenodd" clip-rule="evenodd" d="M23.6328 19.5311C26.0498 19.5311 28.0273 17.5536 28.0273 15.1366V6.34757C28.0273 3.93059 26.0498 1.95305 23.6328 1.95305C21.2158 1.95305 19.2383 3.93059 19.2383 6.34757V15.1366C19.2383 17.5536 21.2158 19.5311 23.6328 19.5311Z" fill="white"/>
<path fill-rule="evenodd" clip-rule="evenodd" d="M36.8162 15.1366C36.8162 17.5536 38.7937 19.5311 41.2107 19.5311C43.6277 19.5311 45.6052 17.5536 45.6052 15.1366V6.34757C45.6052 3.93059 43.6277 1.95305 41.2107 1.95305C38.7937 1.95305 36.8162 3.93059 36.8162 6.34757V10.7421V15.1366Z" fill="white"/>
<path fill-rule="evenodd" clip-rule="evenodd" d="M54.3943 15.1366C54.3943 17.5536 56.3716 19.5311 58.7888 19.5311C61.2058 19.5311 63.1833 17.5536 63.1833 15.1366V6.34757C63.1833 3.93059 61.2058 1.95305 58.7888 1.95305C56.3716 1.95305 54.3943 3.93059 54.3943 6.34757V10.7421V15.1366Z" fill="white"/>
<path fill-rule="evenodd" clip-rule="evenodd" d="M71.9724 10.7421V15.1366C71.9724 17.5536 73.9498 19.5311 76.3669 19.5311C78.7839 19.5311 80.7614 17.5536 80.7614 15.1366V6.34757C80.7614 3.93059 78.7839 1.95305 76.3669 1.95305C73.9498 1.95305 71.9724 3.93059 71.9724 6.34757V10.7421Z" fill="white"/>
<path fill-rule="evenodd" clip-rule="evenodd" d="M13.6716 28.3201H86.328C87.922 28.3201 89.2577 29.6559 89.2577 31.2498V86.3282C89.2577 87.9219 87.9218 89.2578 86.328 89.2578H13.6716C12.0779 89.2578 10.7419 87.9221 10.7419 86.3282V31.2498C10.7419 29.6559 12.0777 28.3201 13.6716 28.3201ZM76.3669 19.5311C73.9497 19.5311 71.9724 17.5537 71.9724 15.1366V10.7421H63.1834V15.1366C63.1834 17.5537 61.2058 19.5311 58.7888 19.5311C56.3717 19.5311 54.3943 17.5537 54.3943 15.1366V10.7421H45.6053V15.1366C45.6053 17.5537 43.6278 19.5311 41.2108 19.5311C38.7938 19.5311 36.8163 17.5537 36.8163 15.1366V10.7421H28.0272V15.1366C28.0272 17.5537 26.0497 19.5311 23.6327 19.5311C21.2157 19.5311 19.2382 17.5537 19.2382 15.1366V10.7421H13.6716C7.2263 10.7421 1.95288 16.0155 1.95288 22.4608V86.3282C1.95288 92.7735 7.22669 98.0469 13.6716 98.0469H86.328C92.7729 98.0469 98.0465 92.7733 98.0465 86.3282V22.4608C98.0465 16.0159 92.7733 10.7421 86.328 10.7421H80.7614V15.1366C80.7614 17.5537 78.7839 19.5311 76.3669 19.5311Z" fill="#FFC144"/>
<path fill-rule="evenodd" clip-rule="evenodd" d="M55.7633 52.14L64.9851 53.8579C66.3103 54.1026 66.7804 55.7169 65.8752 56.6454L59.5045 63.2298L60.7211 72.5372C60.8977 73.8914 59.4592 74.8457 58.2869 74.2092L50.1188 70.2153L41.6344 74.2526C40.4483 74.8147 39.0864 73.8305 39.2862 72.4948L40.5672 63.4444L34.1149 56.6325C33.1944 55.663 33.7434 54.0749 35.0311 53.8513L44.0618 52.2681L48.5459 44.0271C49.1826 42.858 50.8617 42.8884 51.4703 44.0466L55.7633 52.14ZM86.328 28.3201H13.6716C12.0777 28.3201 10.7419 29.6558 10.7419 31.2498V86.3281C10.7419 87.9221 12.0779 89.2578 13.6716 89.2578H86.328C87.9216 89.2578 89.2577 87.9219 89.2577 86.3281V31.2498C89.2577 29.6558 87.9218 28.3201 86.328 28.3201Z" fill="white"/>
<path fill-rule="evenodd" clip-rule="evenodd" d="M55.7634 52.14L51.4704 44.0467C50.8618 42.8885 49.1827 42.858 48.546 44.0271L44.0619 52.2681L35.0312 53.8513C33.7435 54.075 33.1945 55.663 34.115 56.6326L40.5673 63.4445L39.2863 72.4948C39.0865 73.8306 40.4484 74.8147 41.6345 74.2526L50.1189 70.2153L58.287 74.2093C59.4593 74.8458 60.8977 73.8915 60.7212 72.5372L59.5046 63.2298L65.8753 56.6455C66.7805 55.7169 66.3104 54.1027 64.9852 53.858L55.7634 52.14Z" fill="#009F26"/>
</g>
</g>
<defs>
<clipPath id="clip0_63_7498">
<rect width="100" height="100" fill="white"/>
</clipPath>
</defs>
</svg>
