<svg width="28" height="28" viewBox="0 0 28 28" fill="none" xmlns="http://www.w3.org/2000/svg">
<g clip-path="url(#clip0_63_7562)">
<mask id="mask0_63_7562" style="mask-type:luminance" maskUnits="userSpaceOnUse" x="0" y="0" width="28" height="28">
<path d="M0 8.2016e-05H27.9999V28H0V8.2016e-05Z" fill="white"/>
</mask>
<g mask="url(#mask0_63_7562)">
<path fill-rule="evenodd" clip-rule="evenodd" d="M6.61718 5.46875C7.29394 5.46875 7.84765 4.91504 7.84765 4.23828V1.77735C7.84765 1.1006 7.29394 0.546889 6.61718 0.546889C5.94043 0.546889 5.38672 1.1006 5.38672 1.77735V4.23828C5.38672 4.91504 5.94043 5.46875 6.61718 5.46875Z" fill="#9F9F9F"/>
<path fill-rule="evenodd" clip-rule="evenodd" d="M10.3086 4.23828C10.3086 4.91504 10.8623 5.46875 11.5391 5.46875C12.2158 5.46875 12.7695 4.91504 12.7695 4.23828V1.77735C12.7695 1.1006 12.2158 0.546889 11.5391 0.546889C10.8623 0.546889 10.3086 1.1006 10.3086 1.77735V3.00782V4.23828Z" fill="#9F9F9F"/>
<path fill-rule="evenodd" clip-rule="evenodd" d="M15.2305 4.23828C15.2305 4.91504 15.7841 5.46875 16.4609 5.46875C17.1377 5.46875 17.6914 4.91504 17.6914 4.23828V1.77735C17.6914 1.1006 17.1377 0.546889 16.4609 0.546889C15.7841 0.546889 15.2305 1.1006 15.2305 1.77735V3.00782V4.23828Z" fill="#9F9F9F"/>
<path fill-rule="evenodd" clip-rule="evenodd" d="M20.1523 3.00782V4.23828C20.1523 4.91504 20.706 5.46875 21.3828 5.46875C22.0596 5.46875 22.6133 4.91504 22.6133 4.23828V1.77735C22.6133 1.1006 22.0596 0.546889 21.3828 0.546889C20.706 0.546889 20.1523 1.1006 20.1523 1.77735V3.00782Z" fill="#9F9F9F"/>
<path fill-rule="evenodd" clip-rule="evenodd" d="M3.82812 7.92963H24.1719C24.6182 7.92963 24.9922 8.30364 24.9922 8.74994V24.1719C24.9922 24.6181 24.6182 24.9922 24.1719 24.9922H3.82812C3.38187 24.9922 3.00781 24.6182 3.00781 24.1719V8.74994C3.00781 8.30364 3.38181 7.92963 3.82812 7.92963ZM21.3828 5.4687C20.706 5.4687 20.1523 4.91505 20.1523 4.23824V3.00777H17.6914V4.23824C17.6914 4.91505 17.1377 5.4687 16.4609 5.4687C15.7841 5.4687 15.2305 4.91505 15.2305 4.23824V3.00777H12.7695V4.23824C12.7695 4.91505 12.2158 5.4687 11.5391 5.4687C10.8623 5.4687 10.3086 4.91505 10.3086 4.23824V3.00777H7.84769V4.23824C7.84769 4.91505 7.29398 5.4687 6.61722 5.4687C5.94047 5.4687 5.38676 4.91505 5.38676 4.23824V3.00777H3.82812C2.02343 3.00777 0.546875 4.48433 0.546875 6.28901V24.1719C0.546875 25.9766 2.02354 27.4531 3.82812 27.4531H24.1719C25.9765 27.4531 27.4531 25.9765 27.4531 24.1719V6.28901C27.4531 4.48444 25.9766 3.00777 24.1719 3.00777H22.6133V4.23824C22.6133 4.91505 22.0596 5.4687 21.3828 5.4687Z" fill="#9F9F9F"/>
<path fill-rule="evenodd" clip-rule="evenodd" d="M15.6138 14.5992L18.1959 15.0802C18.567 15.1487 18.6986 15.6007 18.4451 15.8607L16.6613 17.7043L17.002 20.3104C17.0514 20.6896 16.6486 20.9568 16.3204 20.7786L14.0333 19.6603L11.6577 20.7907C11.3256 20.9481 10.9443 20.6725 11.0002 20.2985L11.3589 17.7644L9.55225 15.8571C9.29451 15.5856 9.44823 15.141 9.80878 15.0784L12.3374 14.6351L13.5929 12.3276C13.7712 12.0002 14.2414 12.0088 14.4118 12.3331L15.6138 14.5992ZM24.1719 7.92963H3.82812C3.38182 7.92963 3.00781 8.30363 3.00781 8.74994V24.1719C3.00781 24.6182 3.38187 24.9922 3.82812 24.9922H24.1719C24.6181 24.9922 24.9922 24.6181 24.9922 24.1719V8.74994C24.9922 8.30363 24.6182 7.92963 24.1719 7.92963Z" fill="white"/>
<path fill-rule="evenodd" clip-rule="evenodd" d="M15.6139 14.5992L14.4118 12.3331C14.2414 12.0088 13.7713 12.0003 13.593 12.3276L12.3374 14.6351L9.80886 15.0784C9.4483 15.141 9.29458 15.5857 9.55232 15.8572L11.359 17.7645L11.0003 20.2986C10.9443 20.6726 11.3257 20.9482 11.6578 20.7908L14.0334 19.6603L16.3205 20.7786C16.6487 20.9569 17.0515 20.6897 17.002 20.3105L16.6614 17.7044L18.4452 15.8608C18.6987 15.6008 18.567 15.1488 18.196 15.0803L15.6139 14.5992Z" fill="#9F9F9F"/>
</g>
</g>
<defs>
<clipPath id="clip0_63_7562">
<rect width="28" height="28"/>
</clipPath>
</defs>
</svg>
