<svg width="32" height="32" viewBox="0 0 32 32" fill="none" xmlns="http://www.w3.org/2000/svg">
<path d="M16 21.5C19.0376 21.5 21.5 19.0376 21.5 16C21.5 12.9624 19.0376 10.5 16 10.5C12.9624 10.5 10.5 12.9624 10.5 16C10.5 19.0376 12.9624 21.5 16 21.5Z" stroke="white" stroke-width="2" stroke-linecap="round" stroke-linejoin="round"/>
<path d="M24.6745 10.0875C24.9755 10.5184 25.2389 10.9742 25.462 11.45L28.6995 13.25C29.1038 15.0606 29.1081 16.9376 28.712 18.75L25.462 20.55C25.2389 21.0259 24.9755 21.4817 24.6745 21.9125L24.737 25.625C23.365 26.8753 21.7411 27.8173 19.9745 28.3876L16.787 26.475C16.2627 26.5126 15.7364 26.5126 15.212 26.475L12.037 28.375C10.2649 27.8152 8.63567 26.8769 7.26205 25.625L7.32455 21.925C7.02614 21.4882 6.76281 21.0285 6.53705 20.55L3.29955 18.75C2.8953 16.9395 2.89103 15.0625 3.28705 13.25L6.53705 11.45C6.76015 10.9742 7.02361 10.5184 7.32455 10.0875L7.26205 6.37505C8.63411 5.12476 10.258 4.1828 12.0245 3.61255L15.212 5.52505C15.7364 5.48754 16.2627 5.48754 16.787 5.52505L19.962 3.62505C21.7342 4.18492 23.3634 5.12324 24.737 6.37505L24.6745 10.0875Z" stroke="white" stroke-width="2" stroke-linecap="round" stroke-linejoin="round"/>
</svg>
