<svg width="28" height="28" viewBox="0 0 28 28" fill="none" xmlns="http://www.w3.org/2000/svg">
<path d="M14.0176 0.3628C9.28977 0.356609 5.43731 4.20387 5.43737 8.93173C5.43742 12.0747 7.12983 14.822 9.65282 16.3131C10.1009 16.5779 10.372 17.0632 10.372 17.5836V19.6707C10.4574 19.635 10.5489 19.6167 10.6414 19.6168H17.3711C17.4666 19.6168 17.5575 19.6361 17.6405 19.6707V17.5835C17.6405 17.0569 17.9218 16.5731 18.3746 16.3042C20.8893 14.8111 22.5751 12.0685 22.5751 8.93157C22.5751 4.20299 18.7449 0.368992 14.0176 0.3628Z" fill="white"/>
<path d="M12.6367 17.5836C12.6367 17.0632 12.3656 16.5779 11.9176 16.3132C9.39459 14.8221 7.70213 12.0748 7.70213 8.93179C7.70207 4.59086 10.9498 0.992851 15.1408 0.437591C14.7684 0.388301 14.3932 0.363318 14.0176 0.3628C9.28977 0.356609 5.43731 4.20387 5.43737 8.93173C5.43742 12.0747 7.12983 14.822 9.65282 16.3131C10.1009 16.5779 10.372 17.0632 10.372 17.5836V19.6707C10.4574 19.635 10.5489 19.6167 10.6414 19.6168H12.6367V17.5836Z" fill="white"/>
<path d="M19.9839 7.25387C19.5392 5.5967 18.3967 4.21112 16.8494 3.45242C16.8009 3.42869 16.7575 3.39563 16.7218 3.35514C16.6861 3.31465 16.6587 3.26752 16.6412 3.21643C16.6237 3.16535 16.6165 3.11132 16.6199 3.05743C16.6233 3.00355 16.6373 2.95086 16.661 2.90238C16.6848 2.8539 16.7179 2.81058 16.7584 2.7749C16.7989 2.73921 16.8461 2.71186 16.8972 2.69441C16.9483 2.67696 17.0023 2.66976 17.0562 2.6732C17.1101 2.67664 17.1628 2.69067 17.2112 2.71449C18.9716 3.57762 20.2715 5.15458 20.7777 7.04084C20.8059 7.14611 20.7912 7.25829 20.7367 7.3527C20.6823 7.44711 20.5926 7.51602 20.4873 7.54427C20.382 7.57252 20.2698 7.55779 20.1754 7.50333C20.081 7.44887 20.0121 7.35914 19.9839 7.25387Z" fill="#FFEAC8"/>
<path d="M12.3468 25.6339V25.935C12.3468 26.8477 13.0936 27.5945 14.0062 27.5945C14.9189 27.5945 15.6657 26.8477 15.6657 25.935V25.6339H12.3468Z" fill="white"/>
<path d="M13.8323 25.9349V25.6338H12.3468V25.9349C12.3468 26.8476 13.0935 27.5943 14.0062 27.5943C14.2728 27.5943 14.5251 27.5302 14.7489 27.4173C14.2067 27.1435 13.8323 26.5809 13.8323 25.9349Z" fill="white"/>
<path d="M3.44415 9.12325H2.03052C1.92154 9.12325 1.81701 9.07995 1.73995 9.00289C1.66288 8.92582 1.61959 8.8213 1.61959 8.71231C1.61959 8.60332 1.66288 8.4988 1.73995 8.42173C1.81701 8.34467 1.92154 8.30137 2.03052 8.30137H3.44415C3.55314 8.30137 3.65766 8.34467 3.73473 8.42173C3.81179 8.4988 3.85509 8.60332 3.85509 8.71231C3.85509 8.8213 3.81179 8.92582 3.73473 9.00289C3.65766 9.07995 3.55314 9.12325 3.44415 9.12325ZM3.84764 6.51549L2.52595 6.01387C2.47529 5.99488 2.42887 5.96607 2.38937 5.9291C2.34987 5.89213 2.31806 5.84772 2.29576 5.79842C2.27346 5.74912 2.26112 5.6959 2.25945 5.64182C2.25777 5.58774 2.26679 5.53386 2.28598 5.48328C2.30518 5.43269 2.33418 5.38639 2.37131 5.34704C2.40845 5.30769 2.45299 5.27606 2.50238 5.25396C2.55176 5.23187 2.60503 5.21975 2.65912 5.21829C2.7132 5.21683 2.76705 5.22607 2.81755 5.24547L4.13924 5.74709C4.1899 5.76608 4.23632 5.79489 4.27582 5.83186C4.31532 5.86884 4.34713 5.91325 4.36943 5.96255C4.39173 6.01185 4.40407 6.06506 4.40575 6.11914C4.40742 6.17322 4.3984 6.2271 4.37921 6.27769C4.36001 6.32827 4.33101 6.37457 4.29388 6.41392C4.25674 6.45327 4.2122 6.4849 4.16282 6.507C4.11343 6.52909 4.06016 6.54122 4.00607 6.54267C3.95199 6.54413 3.89815 6.53489 3.84764 6.51549ZM2.28755 11.9407C2.24889 11.8389 2.25228 11.7258 2.29699 11.6264C2.3417 11.527 2.42406 11.4494 2.52595 11.4107L3.84764 10.9091C3.94942 10.871 4.06217 10.8747 4.16121 10.9195C4.26025 10.9643 4.33751 11.0465 4.37608 11.1481C4.41464 11.2497 4.41137 11.3625 4.36698 11.4617C4.3226 11.561 4.24071 11.6385 4.13924 11.6775L2.81755 12.1791C2.71566 12.2178 2.60257 12.2144 2.50318 12.1697C2.40379 12.125 2.32622 12.0426 2.28755 11.9407ZM25.982 9.12325H24.5683C24.4593 9.12325 24.3548 9.07995 24.2777 9.00289C24.2006 8.92582 24.1573 8.8213 24.1573 8.71231C24.1573 8.60332 24.2006 8.4988 24.2777 8.42173C24.3548 8.34467 24.4593 8.30137 24.5683 8.30137H25.982C26.091 8.30137 26.1955 8.34467 26.2725 8.42173C26.3496 8.4988 26.3929 8.60332 26.3929 8.71231C26.3929 8.8213 26.3496 8.92582 26.2725 9.00289C26.1955 9.07995 26.091 9.12325 25.982 9.12325ZM23.6348 6.27709C23.5962 6.1752 23.5996 6.06211 23.6443 5.96272C23.689 5.86332 23.7714 5.78576 23.8732 5.74709L25.1949 5.24547C25.2454 5.22607 25.2993 5.21683 25.3534 5.21829C25.4075 5.21975 25.4607 5.23187 25.5101 5.25396C25.5595 5.27606 25.604 5.30769 25.6412 5.34704C25.6783 5.38639 25.7073 5.43269 25.7265 5.48328C25.7457 5.53386 25.7547 5.58774 25.753 5.64182C25.7514 5.6959 25.739 5.74912 25.7167 5.79842C25.6944 5.84772 25.6626 5.89213 25.6231 5.9291C25.5836 5.96607 25.5372 5.99488 25.4865 6.01387L24.1648 6.51549C24.063 6.55414 23.9499 6.55074 23.8505 6.50604C23.7511 6.46133 23.6735 6.37898 23.6348 6.27709ZM25.195 12.1791L23.8733 11.6775C23.8226 11.6585 23.7762 11.6297 23.7367 11.5928C23.6972 11.5558 23.6654 11.5114 23.6431 11.4621C23.6208 11.4128 23.6085 11.3596 23.6068 11.3055C23.6051 11.2514 23.6141 11.1975 23.6333 11.1469C23.6525 11.0963 23.6815 11.05 23.7187 11.0107C23.7558 10.9713 23.8003 10.9397 23.8497 10.9176C23.8991 10.8955 23.9524 10.8834 24.0065 10.8819C24.0606 10.8805 24.1144 10.8897 24.1649 10.9091L25.4866 11.4107C25.5373 11.4297 25.5837 11.4585 25.6232 11.4955C25.6627 11.5325 25.6945 11.5769 25.7168 11.6262C25.7391 11.6755 25.7514 11.7287 25.7531 11.7828C25.7548 11.8369 25.7458 11.8908 25.7266 11.9413C25.7074 11.9919 25.6784 12.0382 25.6412 12.0776C25.6041 12.1169 25.5596 12.1486 25.5102 12.1707C25.4608 12.1927 25.4075 12.2049 25.3534 12.2063C25.2993 12.2078 25.2455 12.1986 25.195 12.1791Z" fill="white"/>
<path d="M16.8235 23.6145H11.189C10.7958 23.6145 10.476 23.9344 10.476 24.3276V24.9345C10.476 25.3277 10.7958 25.6476 11.189 25.6476H16.8234C17.2166 25.6476 17.5365 25.3277 17.5365 24.9345V24.3276C17.5365 23.9344 17.2167 23.6145 16.8235 23.6145Z" fill="#EFECEF"/>
<path d="M16.8235 24.6311H11.189C10.867 24.6311 10.5945 24.4164 10.5063 24.1228C10.4862 24.1892 10.476 24.2582 10.476 24.3276V24.9345C10.476 25.3277 10.7958 25.6476 11.189 25.6476H16.8234C17.2166 25.6476 17.5365 25.3277 17.5365 24.9345V24.3276C17.5365 24.2564 17.5257 24.1877 17.5062 24.1228C17.418 24.4164 17.1454 24.6311 16.8235 24.6311Z" fill="#E2DFE2"/>
<path d="M17.3711 21.6088H10.6414C10.2482 21.6088 9.92837 21.9286 9.92837 22.3218V22.9288C9.92837 23.322 10.2482 23.6419 10.6414 23.6419H17.3711C17.7642 23.6419 18.0841 23.322 18.0841 22.9288V22.3218C18.0841 21.9286 17.7642 21.6088 17.3711 21.6088Z" fill="#EFECEF"/>
<path d="M17.3711 22.6254H10.6414C10.3195 22.6254 10.0469 22.4107 9.95867 22.1171C9.93863 22.1835 9.92842 22.2525 9.92837 22.3218V22.9288C9.92837 23.322 10.2482 23.6419 10.6414 23.6419H17.3711C17.7642 23.6419 18.0841 23.322 18.0841 22.9288V22.3218C18.0841 22.2506 18.0733 22.182 18.0538 22.1171C17.9656 22.4107 17.6931 22.6254 17.3711 22.6254Z" fill="#E2DFE2"/>
<path d="M17.3711 19.603H10.6414C10.2482 19.603 9.92837 19.9229 9.92837 20.3161V20.9231C9.92837 21.3163 10.2482 21.6361 10.6414 21.6361H17.3711C17.7642 21.6361 18.0841 21.3163 18.0841 20.9231V20.3161C18.0841 19.9229 17.7642 19.603 17.3711 19.603Z" fill="#EFECEF"/>
<path d="M17.3711 20.6196H10.6414C10.3195 20.6196 10.0469 20.405 9.95867 20.1113C9.93863 20.1777 9.92842 20.2467 9.92837 20.3161V20.9231C9.92837 21.3163 10.2482 21.6361 10.6414 21.6361H17.3711C17.7642 21.6361 18.0841 21.3163 18.0841 20.9231V20.3161C18.0841 20.2449 18.0733 20.1763 18.0538 20.1113C17.9656 20.405 17.6931 20.6196 17.3711 20.6196Z" fill="#E2DFE2"/>
<path d="M17.1986 2.70914C17.1501 2.68489 17.0973 2.67048 17.0432 2.66675C16.9891 2.66301 16.9348 2.67002 16.8834 2.68738C16.832 2.70473 16.7846 2.73208 16.7438 2.76785C16.7031 2.80363 16.6698 2.84712 16.6459 2.89581C16.622 2.9445 16.608 2.99744 16.6047 3.05157C16.6014 3.1057 16.6088 3.15995 16.6266 3.2112C16.6443 3.26244 16.672 3.30967 16.7081 3.35015C16.7442 3.39063 16.788 3.42357 16.8368 3.44707C18.3842 4.20583 19.5267 5.5914 19.9713 7.24852C19.9853 7.30065 20.0094 7.34951 20.0423 7.39232C20.0752 7.43512 20.1161 7.47103 20.1629 7.498C20.2096 7.52497 20.2612 7.54247 20.3148 7.54949C20.3683 7.55652 20.4226 7.55293 20.4748 7.53895C20.5269 7.52496 20.5758 7.50084 20.6186 7.46797C20.6614 7.4351 20.6973 7.39412 20.7242 7.34737C20.7512 7.30062 20.7687 7.24901 20.7757 7.1955C20.7828 7.14199 20.7792 7.08762 20.7652 7.03549C20.259 5.14918 18.959 3.57227 17.1986 2.70914ZM3.84254 8.70691C3.84254 8.59793 3.79925 8.4934 3.72218 8.41634C3.64512 8.33927 3.54059 8.29598 3.43161 8.29598H2.01798C1.79098 8.29598 1.60704 8.47997 1.60704 8.70691C1.60704 8.93386 1.79098 9.11785 2.01798 9.11785H3.43161C3.54059 9.11785 3.64512 9.07456 3.72218 8.99749C3.79925 8.92042 3.84254 8.8159 3.84254 8.70691ZM4.12669 5.74164L2.80501 5.24002C2.59296 5.15959 2.35555 5.26621 2.27501 5.47842C2.19446 5.69063 2.3012 5.92793 2.51341 6.00842L3.83509 6.51004C3.93688 6.54819 4.04963 6.54446 4.14867 6.49967C4.24771 6.45488 4.32496 6.37267 4.36353 6.27105C4.4021 6.16942 4.39883 6.05665 4.35444 5.95743C4.31005 5.85821 4.22816 5.78062 4.12669 5.74164ZM3.83509 10.9037L2.51341 11.4053C2.41194 11.4443 2.33005 11.5219 2.28566 11.6211C2.24127 11.7203 2.23801 11.8331 2.27657 11.9347C2.31514 12.0363 2.3924 12.1185 2.49144 12.1633C2.59048 12.2081 2.70323 12.2118 2.80501 12.1737L4.12669 11.6721C4.22816 11.6331 4.31005 11.5555 4.35444 11.4563C4.39883 11.3571 4.4021 11.2443 4.36353 11.1427C4.32496 11.041 4.24771 10.9588 4.14867 10.914C4.04963 10.8693 3.93688 10.8655 3.83509 10.9037ZM25.9694 8.29598H24.5557C24.3287 8.29598 24.1448 8.47997 24.1448 8.70691C24.1448 8.93386 24.3287 9.11785 24.5557 9.11785H25.9694C26.1964 9.11785 26.3804 8.93386 26.3804 8.70691C26.3804 8.47997 26.1964 8.29598 25.9694 8.29598ZM24.1524 6.51009L25.474 6.00848C25.5755 5.96949 25.6574 5.8919 25.7018 5.79268C25.7462 5.69346 25.7494 5.58069 25.7109 5.47907C25.6723 5.37744 25.5951 5.29524 25.496 5.25044C25.397 5.20565 25.2842 5.20192 25.1824 5.24008L23.8608 5.74169C23.7593 5.78067 23.6774 5.85827 23.633 5.95749C23.5886 6.05671 23.5854 6.16948 23.6239 6.2711C23.6625 6.37273 23.7397 6.45493 23.8388 6.49972C23.9378 6.54452 24.0506 6.54824 24.1524 6.51009ZM25.474 11.4053L24.1524 10.9037C24.0505 10.865 23.9374 10.8684 23.838 10.9131C23.7386 10.9578 23.661 11.0402 23.6224 11.1421C23.6032 11.1925 23.5942 11.2463 23.5958 11.3002C23.5974 11.3541 23.6096 11.4072 23.6318 11.4565C23.6539 11.5057 23.6855 11.55 23.7248 11.587C23.7641 11.624 23.8103 11.6529 23.8608 11.6721L25.1824 12.1737C25.2842 12.2118 25.397 12.2081 25.496 12.1633C25.5951 12.1185 25.6723 12.0363 25.7109 11.9347C25.7494 11.8331 25.7462 11.7203 25.7018 11.6211C25.6574 11.5219 25.5755 11.4443 25.474 11.4053Z" fill="white"/>
<path d="M14.9071 0.819361C18.6183 1.23265 21.5656 4.10489 22.0745 7.80405C22.0819 7.85751 22.0997 7.909 22.127 7.95559C22.1542 8.00217 22.1904 8.04292 22.2334 8.07553C22.2764 8.10813 22.3254 8.13194 22.3776 8.14561C22.4298 8.15927 22.4842 8.16251 22.5376 8.15515C22.5911 8.14781 22.6426 8.13 22.6892 8.10275C22.7358 8.07549 22.7765 8.03933 22.8091 7.99633C22.8417 7.95332 22.8655 7.90432 22.8792 7.85211C22.8928 7.7999 22.8961 7.74551 22.8887 7.69205C22.6191 5.73193 21.6872 3.88786 20.2646 2.49955C18.8396 1.10883 16.9693 0.222076 14.9981 0.00252555C14.8898 -0.00953574 14.7811 0.0219266 14.696 0.0899911C14.6108 0.158056 14.5563 0.257147 14.5442 0.365466C14.5321 0.473785 14.5636 0.582459 14.6317 0.667581C14.6997 0.752703 14.7988 0.807299 14.9071 0.819361ZM22.5649 9.2563C22.3398 9.23729 22.1399 9.40457 22.1205 9.63069C21.8972 12.2421 20.4138 14.6028 18.1523 15.9455C17.5754 16.288 17.217 16.9136 17.217 17.5781V19.2004H15.478V15.9337C15.4783 15.744 15.5412 15.5597 15.6569 15.4094L16.245 14.648C16.4715 14.3537 16.5947 13.9928 16.5953 13.6213V10.65C16.7043 10.65 16.8087 10.6067 16.8858 10.5296C16.9628 10.4525 17.006 10.348 17.006 10.2391C17.006 10.1302 16.9628 10.0257 16.8858 9.9486C16.8087 9.87154 16.7043 9.82822 16.5953 9.82816V9.78334C16.5953 9.5564 16.4114 9.37241 16.1844 9.37241C15.9574 9.37241 15.7734 9.5564 15.7734 9.78334V9.82811H12.2142V9.78334C12.2142 9.5564 12.0302 9.37241 11.8032 9.37241C11.5762 9.37241 11.3923 9.5564 11.3923 9.78334V9.82811C11.2833 9.82811 11.1788 9.8714 11.1017 9.94847C11.0247 10.0255 10.9814 10.1301 10.9814 10.239C10.9814 10.348 11.0247 10.4526 11.1017 10.5296C11.1788 10.6067 11.2833 10.65 11.3923 10.65V13.6213C11.3929 13.9927 11.5161 14.3536 11.7426 14.648L12.3307 15.4093C12.4464 15.5596 12.5093 15.7439 12.5097 15.9336V19.2003H10.7706V17.5781C10.7706 16.912 10.4177 16.2896 9.84952 15.9538C7.37382 14.4907 5.83592 11.7979 5.83587 8.92618C5.83581 4.76721 8.95045 1.28219 13.0808 0.819689C13.3063 0.79443 13.4686 0.591098 13.4434 0.365576C13.4181 0.140053 13.2155 -0.0224047 12.9893 0.00290909C10.8115 0.246787 8.79884 1.28388 7.32204 2.9232C5.83367 4.57539 5.01394 6.70728 5.01399 8.92618C5.0141 12.2012 6.77346 15.0905 9.4313 16.6613C9.75041 16.8499 9.94864 17.2012 9.94864 17.578V19.4351C9.68756 19.6384 9.51864 19.9548 9.51864 20.3106V20.9176C9.51864 21.1825 9.61222 21.4258 9.76767 21.6169C9.60646 21.8143 9.51848 22.0614 9.51864 22.3163V22.9233C9.51864 23.361 9.77386 23.7392 10.1428 23.9199C10.0924 24.048 10.0665 24.1844 10.0663 24.322V24.929C10.0663 25.5412 10.5643 26.0393 11.1766 26.0393H11.9264C11.9837 27.13 12.889 27.9998 13.9938 27.9998C15.0985 27.9998 16.0039 27.13 16.0612 26.0393H16.811C17.4232 26.0393 17.9213 25.5412 17.9213 24.929V24.322C17.9213 24.1801 17.8935 24.0448 17.8448 23.9199C18.2136 23.7392 18.4689 23.361 18.4689 22.9233V22.3163C18.4689 22.0514 18.3753 21.808 18.2199 21.6169C18.3811 21.4195 18.4691 21.1724 18.4689 20.9176V20.3106C18.4689 19.9548 18.3 19.6383 18.0389 19.4351V17.578C18.0389 17.2021 18.2432 16.8473 18.5719 16.6521C21.0608 15.1743 22.6936 12.5756 22.9394 9.70061C22.9486 9.59204 22.9144 9.48425 22.8442 9.40093C22.7739 9.31762 22.6735 9.2656 22.5649 9.2563ZM12.393 14.1458C12.2773 13.9954 12.2144 13.8111 12.2141 13.6214V10.6501H15.7733V13.6214C15.7733 13.8102 15.7098 13.9964 15.5944 14.1457L15.0064 14.9071C14.7798 15.2014 14.6566 15.5623 14.656 15.9338V19.2005H13.3314V15.9338C13.3307 15.5623 13.2076 15.2014 12.981 14.9071L12.393 14.1458ZM13.9937 27.1781C13.3423 27.1781 12.8058 26.6766 12.75 26.0394H15.2374C15.1816 26.6766 14.6452 27.1781 13.9937 27.1781ZM17.0993 24.9291C17.0993 25.0056 17.0688 25.0789 17.0148 25.133C16.9607 25.1871 16.8874 25.2175 16.8109 25.2176H11.1765C11.1001 25.2175 11.0267 25.1871 10.9727 25.133C10.9186 25.0789 10.8882 25.0056 10.8881 24.9291V24.3222C10.8882 24.2457 10.9186 24.1724 10.9727 24.1183C11.0267 24.0642 11.1001 24.0338 11.1765 24.0337H16.8109C16.8874 24.0338 16.9607 24.0642 17.0148 24.1183C17.0688 24.1724 17.0993 24.2457 17.0993 24.3222V24.9291ZM17.647 22.9234C17.6469 22.9999 17.6165 23.0732 17.5624 23.1273C17.5083 23.1814 17.435 23.2118 17.3585 23.2119H10.6289C10.5525 23.2118 10.4791 23.1814 10.4251 23.1273C10.371 23.0732 10.3405 22.9999 10.3405 22.9234V22.3165C10.3405 22.24 10.371 22.1667 10.4251 22.1126C10.4791 22.0585 10.5525 22.0281 10.6289 22.028H17.3585C17.435 22.0281 17.5083 22.0585 17.5624 22.1126C17.6165 22.1667 17.6469 22.24 17.647 22.3165V22.9234ZM17.647 20.9177C17.6469 20.9942 17.6165 21.0675 17.5624 21.1216C17.5083 21.1757 17.435 21.2061 17.3585 21.2062H10.6289C10.5525 21.2061 10.4791 21.1757 10.4251 21.1216C10.371 21.0675 10.3405 20.9942 10.3405 20.9177V20.3108C10.3405 20.1471 10.4778 20.0223 10.6289 20.0223H17.3585C17.5163 20.0223 17.647 20.1528 17.647 20.3108V20.9177Z" fill="black"/>
</svg>
