<svg width="28" height="28" viewBox="0 0 28 28" fill="none" xmlns="http://www.w3.org/2000/svg">
<path d="M3.59132 17.0435H10.3479V23.8C10.3479 25.4435 11.7479 26.7826 13.3913 26.7826C15.0348 26.7826 16.4348 25.4435 16.4348 23.8V4.20001C16.4348 2.55654 15.0348 1.21741 13.3913 1.21741C11.7479 1.21741 10.3478 2.55654 10.3478 4.20001V10.9565H3.59132C1.94785 10.9565 0.608719 12.3565 0.608719 14C0.608719 15.6435 1.9478 17.0435 3.59132 17.0435Z" fill="white"/>
<path d="M23.1913 10.9565H16.4348V4.20001C16.4348 2.55654 15.0348 1.21741 13.3913 1.21741C11.7479 1.21741 10.3478 2.55654 10.3478 4.20001V23.8C10.3478 25.4435 11.7478 26.7826 13.3913 26.7826C15.0347 26.7826 16.4347 25.4435 16.4347 23.8V17.0435H23.1913C24.8348 17.0435 26.1739 15.6435 26.1739 14C26.1739 12.3565 24.8348 10.9565 23.1913 10.9565Z" fill="white"/>
<path d="M21.3652 10.9565H14.6087V4.20001C14.6087 2.55654 14.4261 1.21741 12.7826 1.21741C11.1391 1.21741 9.73914 2.55654 9.73914 4.20001V10.9565H5.47827C3.8348 10.9565 2.49567 12.3565 2.49567 14C2.49567 15.6435 3.8348 17.0435 5.47827 17.0435H9.73914V23.8C9.73914 25.4435 11.1391 26.7826 12.7826 26.7826C14.4261 26.7826 14.6087 25.4435 14.6087 23.8V17.0435H21.3652C23.0087 17.0435 24.3478 15.6435 24.3478 14C24.3478 12.3565 23.0087 10.9565 21.3652 10.9565Z" fill="white"/>
<path d="M13.3913 27.3913C11.3827 27.3913 9.73913 25.7478 9.73913 23.8V17.6522H3.59133C1.64347 17.6522 0 16.0086 0 14C0 11.9913 1.64347 10.3478 3.59133 10.3478H9.73913V4.19997C9.73913 2.25217 11.3826 0.608643 13.3913 0.608643C15.4001 0.608643 17.0435 2.25211 17.0435 4.19997V10.3478H23.1913C25.2 10.3478 26.7827 11.9912 26.7827 14C26.7827 16.0087 25.1392 17.6522 23.1913 17.6522H17.0435V23.8C17.0435 25.7478 15.4 27.3913 13.3913 27.3913ZM3.59133 11.5652C2.31306 11.5652 1.2174 12.6608 1.2174 14C1.2174 15.3391 2.31306 16.4348 3.59133 16.4348H10.3479C10.7131 16.4348 10.9565 16.6782 10.9565 17.0434V23.8C10.9565 25.0782 12.0522 26.1739 13.3913 26.1739C14.7305 26.1739 15.8261 25.0782 15.8261 23.8V17.0434C15.8261 16.6782 16.0696 16.4348 16.4348 16.4348H23.1913C24.4696 16.4348 25.5653 15.3391 25.5653 14C25.5653 12.6608 24.4696 11.5652 23.1913 11.5652H16.4348C16.0696 11.5652 15.8261 11.3217 15.8261 10.9565V4.19997C15.8261 2.92171 14.7305 1.82604 13.3913 1.82604C12.0522 1.82604 10.9565 2.92171 10.9565 4.19997V10.9565C10.9565 11.3217 10.7131 11.5652 10.3479 11.5652H3.59133Z" fill="white"/>
</svg>
