<svg width="44" height="44" viewBox="0 0 44 44" fill="none" xmlns="http://www.w3.org/2000/svg">
<g clip-path="url(#clip0_31_3181)">
<path d="M29.9235 32.1368L21.8707 33.0222L13.8994 32.1368C17.6699 32.1368 18.9926 29.4375 19.2502 25.8662C19.2848 25.3934 19.2998 24.9056 19.2998 24.4072V24.0699C20.1355 24.2496 21.0341 24.3461 22 24.3461C22.9314 24.3461 23.8007 24.2567 24.6117 24.0894V24.4072C24.6117 24.9118 24.6258 25.4058 24.6595 25.8839C24.9038 29.4464 26.1592 32.1368 29.9235 32.1368Z" fill="#FAD207"/>
<path d="M32.9336 34.0119V37.0061L21.9115 37.8914L10.8893 37.0061V34.0119C10.8893 32.9761 11.7286 32.1368 12.7644 32.1368H31.0585C31.904 32.1368 32.6184 32.6964 32.8521 33.4648C32.9053 33.6383 32.9336 33.8216 32.9336 34.0119Z" fill="#FAD207"/>
<path d="M32.8522 33.4648H13.1026C12.6139 33.4648 12.2173 33.8614 12.2173 34.3501V37.006H10.8893V34.0119C10.8893 32.9761 11.7286 32.1368 12.7644 32.1368H31.0585C31.904 32.1368 32.6184 32.6963 32.8522 33.4648ZM24.6595 25.8839C23.8078 26.0379 22.9154 26.1167 22 26.1167C21.0527 26.1167 20.1293 26.0326 19.2502 25.8662C19.2847 25.3934 19.2998 24.9056 19.2998 24.4072V24.0699L22 23.9646L24.6117 24.0893V24.4072C24.6117 24.9118 24.6258 25.4058 24.6595 25.8839Z" fill="#FAA515"/>
<path d="M44 8.98593C44 15.5514 38.658 20.8934 32.0926 20.8934H30.3662C31.1408 20.0922 31.8057 19.19 32.3767 18.233C36.8998 18.0958 40.6163 14.6971 41.2493 10.3139H35.2212C35.408 9.34979 35.54 8.44854 35.6329 7.65796H42.672C43.4051 7.65796 44 8.25289 44 8.98593Z" fill="#FAD207"/>
<path d="M34.5785 17.8984C34.3625 18.3277 34.135 18.7421 33.8968 19.1405C33.5294 19.7566 33.1346 20.3374 32.7158 20.8766C32.5095 20.8881 32.3015 20.8934 32.0926 20.8934H30.3662L30.5625 19.6216L32.3767 18.233C32.3767 18.233 33.8747 18.0949 34.5785 17.8984ZM37.415 7.65796C37.3154 8.54759 37.1846 9.43345 37.0229 10.3139H35.2212L34.5669 8.98593L35.6328 7.65796H37.415Z" fill="#FAA515"/>
<path d="M44 8.98593C44 15.3425 38.9927 20.5516 32.7158 20.8766C33.1346 20.3374 33.5294 19.7566 33.8968 19.1405C34.135 18.7421 34.3625 18.3277 34.5785 17.8984C38.0622 16.9254 40.7226 13.9605 41.2493 10.3139H37.0229C37.1846 9.43345 37.3154 8.54759 37.415 7.65796H42.672C43.4051 7.65796 44 8.25289 44 8.98593ZM13.6338 20.8934H11.9074C5.34197 20.8934 0 15.5514 0 8.98593C0 8.25289 0.59493 7.65796 1.32797 7.65796H8.36708C8.46004 8.44854 8.59195 9.34979 8.77875 10.3139H2.75066C3.38366 14.6971 7.1002 18.0958 11.6233 18.233C12.1943 19.19 12.8592 20.0922 13.6338 20.8934Z" fill="#FAD207"/>
<path d="M8.77876 10.3139H6.97715C6.81553 9.43342 6.68472 8.54757 6.58495 7.65796H8.36709L9.43787 9.01727L8.77876 10.3139ZM13.6338 20.8934H11.9074C11.6985 20.8934 11.4905 20.8881 11.2842 20.8766C10.8654 20.3374 10.4706 19.7566 10.1032 19.1405C9.86503 18.7421 9.63751 18.3277 9.42149 17.8984C10.1253 18.0949 11.6233 18.233 11.6233 18.233L13.2757 19.402L13.6338 20.8934Z" fill="#FAA515"/>
<path d="M36.3863 37.006H7.61369C6.63577 37.006 5.84306 37.7988 5.84306 38.7767V42.2294C5.84306 43.2073 6.63577 44 7.61369 44H36.3863C37.3642 44 38.1569 43.2073 38.1569 42.2294V38.7767C38.1569 37.7988 37.3642 37.006 36.3863 37.006Z" fill="#50758D"/>
<path d="M9.38431 44H7.61369C6.63542 44 5.84306 43.2077 5.84306 42.2294V38.7767C5.84306 37.7984 6.63542 37.006 7.61369 37.006V42.2294C7.61369 43.2077 8.40604 44 9.38431 44Z" fill="#2B597F"/>
<path d="M35.8551 4.51508C35.8551 4.51508 35.8551 5.18791 35.7684 6.2857C35.7365 6.6894 35.6922 7.15153 35.6329 7.65793C35.5399 8.44852 35.408 9.34976 35.2212 10.3139C34.7361 12.8025 33.8826 15.7107 32.3767 18.233C31.8057 19.19 31.1408 20.0921 30.3662 20.8933C28.8842 22.4267 27.002 23.5953 24.6117 24.0893C23.8007 24.2566 22.9313 24.3461 22 24.3461C21.0341 24.3461 20.1355 24.2496 19.2998 24.0698C16.9519 23.567 15.0981 22.4081 13.6338 20.8933C12.8592 20.0921 12.1943 19.19 11.6233 18.233C10.1173 15.7107 9.2639 12.8025 8.77875 10.3139C8.59195 9.34976 8.46004 8.44852 8.36708 7.65793C8.30776 7.15153 8.2635 6.6894 8.23163 6.2857C8.14487 5.18791 8.14487 4.51508 8.14487 4.51508H35.8551Z" fill="#FAD207"/>
<path d="M22.4462 8.42481L23.5339 11.7724H27.0538C27.5083 11.7724 27.6972 12.354 27.3296 12.6212L24.4819 14.6902L25.5696 18.0379C25.71 18.4702 25.2153 18.8296 24.8476 18.5624L21.9999 16.4935L19.1522 18.5624C18.7845 18.8296 18.2897 18.4701 18.4302 18.0379L19.5179 14.6902L16.6702 12.6212C16.3026 12.354 16.4915 11.7724 16.946 11.7724H20.4659L21.5536 8.42481C21.6942 7.99251 22.3058 7.99251 22.4462 8.42481Z" fill="#FC4755"/>
<path d="M30.1006 41.2113H13.8994C13.5326 41.2113 13.2354 40.9141 13.2354 40.5473C13.2354 40.1805 13.5326 39.8833 13.8994 39.8833H30.1006C30.4674 39.8833 30.7646 40.1805 30.7646 40.5473C30.7646 40.9141 30.4674 41.2113 30.1006 41.2113Z" fill="#2B597F"/>
<path d="M35.8551 4.51507L21.4292 3.62976L9.91549 4.51507H8.14487C8.14487 4.51507 8.14487 5.18791 8.23163 6.2857C8.2635 6.6894 8.30776 7.15153 8.36708 7.65793C8.46004 8.44851 8.59195 9.34976 8.77875 10.3139C9.2639 12.8025 10.1173 15.7107 11.6233 18.233C12.1943 19.19 12.8592 20.0921 13.6338 20.8933C15.0981 22.4081 16.9519 23.567 19.2998 24.0698C20.1355 24.2496 21.0341 24.3461 22 24.3461C22.301 24.3461 22.5949 24.3372 22.8827 24.3186C22.2479 24.2779 21.6441 24.1929 21.0704 24.0698C18.7226 23.567 16.8687 22.4081 15.4044 20.8933C14.6298 20.0921 13.9649 19.19 13.3939 18.233C11.888 15.7107 11.0345 12.8025 10.5494 10.3139C10.3626 9.34976 10.2307 8.44851 10.1377 7.65793L10.1359 7.64279C10.0516 6.91976 10.6185 6.2857 11.3464 6.2857H35.7684C35.8551 5.18791 35.8551 4.51507 35.8551 4.51507Z" fill="#FAA515"/>
<path d="M8.10061 0H35.8994C37.1462 0 38.1569 1.01076 38.1569 2.25754C38.1569 3.50433 37.1462 4.51509 35.8994 4.51509H8.10061C6.85382 4.51509 5.84306 3.50433 5.84306 2.25754C5.84306 1.01076 6.85382 0 8.10061 0Z" fill="#FAD207"/>
<path d="M9.87123 4.51509H8.10061C6.85409 4.51509 5.84306 3.50406 5.84306 2.25754C5.84306 1.63429 6.09626 1.06946 6.50439 0.661328C6.91252 0.253199 7.47735 0 8.10061 0H9.87123C9.24797 0 8.68314 0.253199 8.27502 0.661328C7.86689 1.06946 7.61369 1.63429 7.61369 2.25754C7.61369 3.50406 8.62471 4.51509 9.87123 4.51509Z" fill="#FAA515"/>
</g>
<defs>
<clipPath id="clip0_31_3181">
<rect width="44" height="44" fill="white"/>
</clipPath>
</defs>
</svg>
