<svg width="32" height="32" viewBox="0 0 32 32" fill="none" xmlns="http://www.w3.org/2000/svg">
<mask id="path-1-outside-1_13_1775" maskUnits="userSpaceOnUse" x="-0.00012207" y="1.00793" width="32" height="30" fill="black">
<rect fill="white" x="-0.00012207" y="1.00793" width="32" height="30"/>
<path d="M7.00002 16C6.50557 16 6.02222 16.1466 5.6111 16.4213C5.19997 16.696 4.87954 17.0865 4.69032 17.5433C4.5011 18.0001 4.4516 18.5028 4.54806 18.9877C4.64452 19.4727 4.88262 19.9181 5.23226 20.2678C5.58189 20.6174 6.02734 20.8555 6.5123 20.952C6.99725 21.0484 7.49992 20.9989 7.95673 20.8097C8.41355 20.6205 8.80399 20.3 9.0787 19.8889C9.3534 19.4778 9.50002 18.9944 9.50002 18.5C9.49923 17.8372 9.23558 17.2018 8.76691 16.7331C8.29824 16.2644 7.66282 16.0008 7.00002 16ZM7.00002 20C6.70335 20 6.41334 19.912 6.16667 19.7472C5.91999 19.5824 5.72774 19.3481 5.6142 19.074C5.50067 18.7999 5.47097 18.4983 5.52884 18.2074C5.58672 17.9164 5.72958 17.6491 5.93936 17.4393C6.14914 17.2296 6.41642 17.0867 6.70739 17.0288C6.99836 16.9709 7.29996 17.0006 7.57405 17.1142C7.84814 17.2277 8.08241 17.42 8.24723 17.6666C8.41205 17.9133 8.50002 18.2033 8.50002 18.5C8.49963 18.8977 8.34146 19.279 8.06024 19.5602C7.77903 19.8414 7.39773 19.9996 7.00002 20ZM11.5 21.5C11.0056 21.5 10.5222 21.6466 10.1111 21.9213C9.69997 22.196 9.37954 22.5865 9.19032 23.0433C9.0011 23.5001 8.9516 24.0028 9.04806 24.4877C9.14452 24.9727 9.38262 25.4181 9.73226 25.7678C10.0819 26.1174 10.5273 26.3555 11.0123 26.452C11.4972 26.5484 11.9999 26.4989 12.4567 26.3097C12.9135 26.1205 13.304 25.8 13.5787 25.3889C13.8534 24.9778 14 24.4944 14 24C13.9992 23.3372 13.7356 22.7018 13.2669 22.2331C12.7982 21.7644 12.1628 21.5008 11.5 21.5ZM11.5 25.5C11.2034 25.5 10.9133 25.412 10.6667 25.2472C10.42 25.0824 10.2277 24.8481 10.1142 24.574C10.0007 24.2999 9.97097 23.9983 10.0288 23.7074C10.0867 23.4164 10.2296 23.1491 10.4394 22.9393C10.6491 22.7296 10.9164 22.5867 11.2074 22.5288C11.4984 22.4709 11.8 22.5006 12.074 22.6142C12.3481 22.7277 12.5824 22.92 12.7472 23.1666C12.9121 23.4133 13 23.7033 13 24C12.9996 24.3977 12.8415 24.779 12.5602 25.0602C12.279 25.3414 11.8977 25.4996 11.5 25.5ZM8.50002 14C8.99448 14 9.47783 13.8534 9.88895 13.5787C10.3001 13.304 10.6205 12.9135 10.8097 12.4567C10.9989 11.9999 11.0484 11.4972 10.952 11.0123C10.8555 10.5273 10.6174 10.0819 10.2678 9.73222C9.91816 9.38259 9.4727 9.14449 8.98775 9.04803C8.5028 8.95156 8.00013 9.00107 7.54331 9.19029C7.0865 9.37951 6.69605 9.69994 6.42135 10.1111C6.14665 10.5222 6.00002 11.0055 6.00002 11.5C6.00082 12.1628 6.26446 12.7982 6.73313 13.2669C7.2018 13.7356 7.83723 13.9992 8.50002 14ZM8.50002 9.99999C8.79669 9.99999 9.0867 10.088 9.33338 10.2528C9.58005 10.4176 9.77231 10.6519 9.88584 10.926C9.99937 11.2001 10.0291 11.5017 9.9712 11.7926C9.91332 12.0836 9.77046 12.3509 9.56068 12.5607C9.3509 12.7704 9.08363 12.9133 8.79266 12.9712C8.50169 13.029 8.20009 12.9993 7.926 12.8858C7.65191 12.7723 7.41764 12.58 7.25282 12.3333C7.088 12.0867 7.00002 11.7967 7.00002 11.5C7.00042 11.1023 7.15858 10.721 7.4398 10.4398C7.72102 10.1586 8.10232 10.0004 8.50002 9.99999ZM15 10.5C15.4945 10.5 15.9778 10.3534 16.3889 10.0787C16.8001 9.80396 17.1205 9.41352 17.3097 8.9567C17.4989 8.49989 17.5484 7.99722 17.452 7.51227C17.3555 7.02731 17.1174 6.58186 16.7678 6.23222C16.4182 5.88259 15.9727 5.64449 15.4877 5.54803C15.0028 5.45156 14.5001 5.50107 14.0433 5.69029C13.5865 5.87951 13.1961 6.19994 12.9213 6.61107C12.6466 7.02219 12.5 7.50554 12.5 7.99999C12.5008 8.66279 12.7645 9.29821 13.2331 9.76688C13.7018 10.2356 14.3372 10.4992 15 10.5ZM15 6.49999C15.2967 6.49999 15.5867 6.58797 15.8334 6.75279C16.0801 6.91761 16.2723 7.15188 16.3858 7.42597C16.4994 7.70006 16.5291 8.00166 16.4712 8.29263C16.4133 8.5836 16.2705 8.85087 16.0607 9.06065C15.8509 9.27043 15.5836 9.41329 15.2927 9.47117C15.0017 9.52905 14.7001 9.49934 14.426 9.38581C14.1519 9.27228 13.9176 9.08002 13.7528 8.83335C13.588 8.58667 13.5 8.29666 13.5 7.99999C13.5004 7.60229 13.6586 7.22099 13.9398 6.93977C14.221 6.65855 14.6023 6.50039 15 6.49999ZM30.6815 2.31849C29.399 1.03599 25.575 3.99999 23.229 6.20499C21.5716 4.79959 19.5993 3.81512 17.4798 3.33524C15.3604 2.85536 13.1564 2.89426 11.0552 3.44863C8.95401 4.003 7.01771 5.05645 5.41086 6.51946C3.80401 7.98247 2.57412 9.81179 1.82571 11.8519C1.07729 13.8921 0.832482 16.0828 1.11208 18.2378C1.39168 20.3929 2.18742 22.4485 3.43168 24.2302C4.67593 26.0118 6.33192 27.4667 8.25891 28.4712C10.1859 29.4757 12.3269 30.0002 14.5 30C15.926 30 17.045 29.5105 17.573 28.657C17.9045 28.121 18.152 27.1855 17.4475 25.7765C17.1973 25.3205 17.064 24.8096 17.0595 24.2895C17.055 23.7694 17.1793 23.2563 17.4215 22.796C17.945 21.948 19.01 21.5 20.5 21.5C24.2085 21.5 28 20.906 28 16.5C27.9972 14.2918 27.4528 12.1179 26.4145 10.169C28.636 7.88399 32.0395 3.67749 30.6815 2.31849ZM29.975 3.02499C30.288 3.36249 29.1145 6.05999 25.4155 9.75849C24.5164 10.6607 23.5634 11.5074 22.5615 12.294C22.0861 11.5473 21.4527 10.9139 20.706 10.4385C21.4926 9.43666 22.3393 8.48357 23.2415 7.58449C26.94 3.88599 29.638 2.71349 29.975 3.02499ZM19.0625 12.944C19.366 12.3499 19.7152 11.7804 20.107 11.2405C20.7793 11.6548 21.3452 12.2207 21.7595 12.893C21.2196 13.2848 20.6501 13.634 20.056 13.9375C19.8077 13.5328 19.4673 13.1924 19.0625 12.944ZM19.5 15.5C19.5 16.6825 18.268 18 16.5 18C15.4207 18.0468 14.3633 17.6857 13.538 16.9885C14.596 16.7595 15.0725 15.865 15.473 15.113C16.006 14.113 16.3885 13.5 17.5 13.5C18.0303 13.5005 18.5387 13.7114 18.9137 14.0864C19.2886 14.4613 19.4995 14.9697 19.5 15.5ZM20.5 20.5C18.1565 20.5 17.07 21.4625 16.571 22.27C16.2354 22.8742 16.0578 23.5533 16.0545 24.2444C16.0513 24.9355 16.2226 25.6162 16.5525 26.2235C16.953 27.0235 17.01 27.666 16.7225 28.132C16.3855 28.675 15.555 29 14.5 29C12.4904 29.0034 10.5095 28.5222 8.72541 27.5972C6.94129 26.6722 5.4065 25.3307 4.25113 23.6864C3.09577 22.042 2.3539 20.1434 2.08841 18.1513C1.82293 16.1593 2.04165 14.1326 2.72604 12.2431C3.41044 10.3536 4.54032 8.65691 6.01991 7.29695C7.49951 5.93699 9.28519 4.95382 11.2256 4.43078C13.166 3.90775 15.2039 3.86027 17.1665 4.29237C19.1292 4.72447 20.9587 5.62341 22.5 6.91299C20.475 8.94299 18.885 11.0115 18.134 12.569C17.9257 12.5235 17.7132 12.5004 17.5 12.5C15.7315 12.5 15.099 13.688 14.591 14.6425C14.0445 15.6685 13.707 16.1935 12.582 16.007C12.4911 15.9918 12.3977 16.0021 12.3123 16.0367C12.2268 16.0713 12.1526 16.1289 12.0978 16.203C12.043 16.2772 12.0098 16.365 12.0018 16.4569C11.9938 16.5487 12.0113 16.641 12.0525 16.7235C12.099 16.8165 13.2285 19 16.5 19C18.8925 19 20.5 17.19 20.5 15.5C20.4996 15.2868 20.4765 15.0743 20.431 14.866C22.3624 13.8088 24.1279 12.4735 25.671 10.903C26.5432 12.64 26.9982 14.5564 27 16.5C27 19.3785 25.1775 20.5 20.5 20.5Z"/>
</mask>
<path d="M7.00002 16C6.50557 16 6.02222 16.1466 5.6111 16.4213C5.19997 16.696 4.87954 17.0865 4.69032 17.5433C4.5011 18.0001 4.4516 18.5028 4.54806 18.9877C4.64452 19.4727 4.88262 19.9181 5.23226 20.2678C5.58189 20.6174 6.02734 20.8555 6.5123 20.952C6.99725 21.0484 7.49992 20.9989 7.95673 20.8097C8.41355 20.6205 8.80399 20.3 9.0787 19.8889C9.3534 19.4778 9.50002 18.9944 9.50002 18.5C9.49923 17.8372 9.23558 17.2018 8.76691 16.7331C8.29824 16.2644 7.66282 16.0008 7.00002 16ZM7.00002 20C6.70335 20 6.41334 19.912 6.16667 19.7472C5.91999 19.5824 5.72774 19.3481 5.6142 19.074C5.50067 18.7999 5.47097 18.4983 5.52884 18.2074C5.58672 17.9164 5.72958 17.6491 5.93936 17.4393C6.14914 17.2296 6.41642 17.0867 6.70739 17.0288C6.99836 16.9709 7.29996 17.0006 7.57405 17.1142C7.84814 17.2277 8.08241 17.42 8.24723 17.6666C8.41205 17.9133 8.50002 18.2033 8.50002 18.5C8.49963 18.8977 8.34146 19.279 8.06024 19.5602C7.77903 19.8414 7.39773 19.9996 7.00002 20ZM11.5 21.5C11.0056 21.5 10.5222 21.6466 10.1111 21.9213C9.69997 22.196 9.37954 22.5865 9.19032 23.0433C9.0011 23.5001 8.9516 24.0028 9.04806 24.4877C9.14452 24.9727 9.38262 25.4181 9.73226 25.7678C10.0819 26.1174 10.5273 26.3555 11.0123 26.452C11.4972 26.5484 11.9999 26.4989 12.4567 26.3097C12.9135 26.1205 13.304 25.8 13.5787 25.3889C13.8534 24.9778 14 24.4944 14 24C13.9992 23.3372 13.7356 22.7018 13.2669 22.2331C12.7982 21.7644 12.1628 21.5008 11.5 21.5ZM11.5 25.5C11.2034 25.5 10.9133 25.412 10.6667 25.2472C10.42 25.0824 10.2277 24.8481 10.1142 24.574C10.0007 24.2999 9.97097 23.9983 10.0288 23.7074C10.0867 23.4164 10.2296 23.1491 10.4394 22.9393C10.6491 22.7296 10.9164 22.5867 11.2074 22.5288C11.4984 22.4709 11.8 22.5006 12.074 22.6142C12.3481 22.7277 12.5824 22.92 12.7472 23.1666C12.9121 23.4133 13 23.7033 13 24C12.9996 24.3977 12.8415 24.779 12.5602 25.0602C12.279 25.3414 11.8977 25.4996 11.5 25.5ZM8.50002 14C8.99448 14 9.47783 13.8534 9.88895 13.5787C10.3001 13.304 10.6205 12.9135 10.8097 12.4567C10.9989 11.9999 11.0484 11.4972 10.952 11.0123C10.8555 10.5273 10.6174 10.0819 10.2678 9.73222C9.91816 9.38259 9.4727 9.14449 8.98775 9.04803C8.5028 8.95156 8.00013 9.00107 7.54331 9.19029C7.0865 9.37951 6.69605 9.69994 6.42135 10.1111C6.14665 10.5222 6.00002 11.0055 6.00002 11.5C6.00082 12.1628 6.26446 12.7982 6.73313 13.2669C7.2018 13.7356 7.83723 13.9992 8.50002 14ZM8.50002 9.99999C8.79669 9.99999 9.0867 10.088 9.33338 10.2528C9.58005 10.4176 9.77231 10.6519 9.88584 10.926C9.99937 11.2001 10.0291 11.5017 9.9712 11.7926C9.91332 12.0836 9.77046 12.3509 9.56068 12.5607C9.3509 12.7704 9.08363 12.9133 8.79266 12.9712C8.50169 13.029 8.20009 12.9993 7.926 12.8858C7.65191 12.7723 7.41764 12.58 7.25282 12.3333C7.088 12.0867 7.00002 11.7967 7.00002 11.5C7.00042 11.1023 7.15858 10.721 7.4398 10.4398C7.72102 10.1586 8.10232 10.0004 8.50002 9.99999ZM15 10.5C15.4945 10.5 15.9778 10.3534 16.3889 10.0787C16.8001 9.80396 17.1205 9.41352 17.3097 8.9567C17.4989 8.49989 17.5484 7.99722 17.452 7.51227C17.3555 7.02731 17.1174 6.58186 16.7678 6.23222C16.4182 5.88259 15.9727 5.64449 15.4877 5.54803C15.0028 5.45156 14.5001 5.50107 14.0433 5.69029C13.5865 5.87951 13.1961 6.19994 12.9213 6.61107C12.6466 7.02219 12.5 7.50554 12.5 7.99999C12.5008 8.66279 12.7645 9.29821 13.2331 9.76688C13.7018 10.2356 14.3372 10.4992 15 10.5ZM15 6.49999C15.2967 6.49999 15.5867 6.58797 15.8334 6.75279C16.0801 6.91761 16.2723 7.15188 16.3858 7.42597C16.4994 7.70006 16.5291 8.00166 16.4712 8.29263C16.4133 8.5836 16.2705 8.85087 16.0607 9.06065C15.8509 9.27043 15.5836 9.41329 15.2927 9.47117C15.0017 9.52905 14.7001 9.49934 14.426 9.38581C14.1519 9.27228 13.9176 9.08002 13.7528 8.83335C13.588 8.58667 13.5 8.29666 13.5 7.99999C13.5004 7.60229 13.6586 7.22099 13.9398 6.93977C14.221 6.65855 14.6023 6.50039 15 6.49999ZM30.6815 2.31849C29.399 1.03599 25.575 3.99999 23.229 6.20499C21.5716 4.79959 19.5993 3.81512 17.4798 3.33524C15.3604 2.85536 13.1564 2.89426 11.0552 3.44863C8.95401 4.003 7.01771 5.05645 5.41086 6.51946C3.80401 7.98247 2.57412 9.81179 1.82571 11.8519C1.07729 13.8921 0.832482 16.0828 1.11208 18.2378C1.39168 20.3929 2.18742 22.4485 3.43168 24.2302C4.67593 26.0118 6.33192 27.4667 8.25891 28.4712C10.1859 29.4757 12.3269 30.0002 14.5 30C15.926 30 17.045 29.5105 17.573 28.657C17.9045 28.121 18.152 27.1855 17.4475 25.7765C17.1973 25.3205 17.064 24.8096 17.0595 24.2895C17.055 23.7694 17.1793 23.2563 17.4215 22.796C17.945 21.948 19.01 21.5 20.5 21.5C24.2085 21.5 28 20.906 28 16.5C27.9972 14.2918 27.4528 12.1179 26.4145 10.169C28.636 7.88399 32.0395 3.67749 30.6815 2.31849ZM29.975 3.02499C30.288 3.36249 29.1145 6.05999 25.4155 9.75849C24.5164 10.6607 23.5634 11.5074 22.5615 12.294C22.0861 11.5473 21.4527 10.9139 20.706 10.4385C21.4926 9.43666 22.3393 8.48357 23.2415 7.58449C26.94 3.88599 29.638 2.71349 29.975 3.02499ZM19.0625 12.944C19.366 12.3499 19.7152 11.7804 20.107 11.2405C20.7793 11.6548 21.3452 12.2207 21.7595 12.893C21.2196 13.2848 20.6501 13.634 20.056 13.9375C19.8077 13.5328 19.4673 13.1924 19.0625 12.944ZM19.5 15.5C19.5 16.6825 18.268 18 16.5 18C15.4207 18.0468 14.3633 17.6857 13.538 16.9885C14.596 16.7595 15.0725 15.865 15.473 15.113C16.006 14.113 16.3885 13.5 17.5 13.5C18.0303 13.5005 18.5387 13.7114 18.9137 14.0864C19.2886 14.4613 19.4995 14.9697 19.5 15.5ZM20.5 20.5C18.1565 20.5 17.07 21.4625 16.571 22.27C16.2354 22.8742 16.0578 23.5533 16.0545 24.2444C16.0513 24.9355 16.2226 25.6162 16.5525 26.2235C16.953 27.0235 17.01 27.666 16.7225 28.132C16.3855 28.675 15.555 29 14.5 29C12.4904 29.0034 10.5095 28.5222 8.72541 27.5972C6.94129 26.6722 5.4065 25.3307 4.25113 23.6864C3.09577 22.042 2.3539 20.1434 2.08841 18.1513C1.82293 16.1593 2.04165 14.1326 2.72604 12.2431C3.41044 10.3536 4.54032 8.65691 6.01991 7.29695C7.49951 5.93699 9.28519 4.95382 11.2256 4.43078C13.166 3.90775 15.2039 3.86027 17.1665 4.29237C19.1292 4.72447 20.9587 5.62341 22.5 6.91299C20.475 8.94299 18.885 11.0115 18.134 12.569C17.9257 12.5235 17.7132 12.5004 17.5 12.5C15.7315 12.5 15.099 13.688 14.591 14.6425C14.0445 15.6685 13.707 16.1935 12.582 16.007C12.4911 15.9918 12.3977 16.0021 12.3123 16.0367C12.2268 16.0713 12.1526 16.1289 12.0978 16.203C12.043 16.2772 12.0098 16.365 12.0018 16.4569C11.9938 16.5487 12.0113 16.641 12.0525 16.7235C12.099 16.8165 13.2285 19 16.5 19C18.8925 19 20.5 17.19 20.5 15.5C20.4996 15.2868 20.4765 15.0743 20.431 14.866C22.3624 13.8088 24.1279 12.4735 25.671 10.903C26.5432 12.64 26.9982 14.5564 27 16.5C27 19.3785 25.1775 20.5 20.5 20.5Z" fill="white"/>
<path d="M7.00002 16C6.50557 16 6.02222 16.1466 5.6111 16.4213C5.19997 16.696 4.87954 17.0865 4.69032 17.5433C4.5011 18.0001 4.4516 18.5028 4.54806 18.9877C4.64452 19.4727 4.88262 19.9181 5.23226 20.2678C5.58189 20.6174 6.02734 20.8555 6.5123 20.952C6.99725 21.0484 7.49992 20.9989 7.95673 20.8097C8.41355 20.6205 8.80399 20.3 9.0787 19.8889C9.3534 19.4778 9.50002 18.9944 9.50002 18.5C9.49923 17.8372 9.23558 17.2018 8.76691 16.7331C8.29824 16.2644 7.66282 16.0008 7.00002 16ZM7.00002 20C6.70335 20 6.41334 19.912 6.16667 19.7472C5.91999 19.5824 5.72774 19.3481 5.6142 19.074C5.50067 18.7999 5.47097 18.4983 5.52884 18.2074C5.58672 17.9164 5.72958 17.6491 5.93936 17.4393C6.14914 17.2296 6.41642 17.0867 6.70739 17.0288C6.99836 16.9709 7.29996 17.0006 7.57405 17.1142C7.84814 17.2277 8.08241 17.42 8.24723 17.6666C8.41205 17.9133 8.50002 18.2033 8.50002 18.5C8.49963 18.8977 8.34146 19.279 8.06024 19.5602C7.77903 19.8414 7.39773 19.9996 7.00002 20ZM11.5 21.5C11.0056 21.5 10.5222 21.6466 10.1111 21.9213C9.69997 22.196 9.37954 22.5865 9.19032 23.0433C9.0011 23.5001 8.9516 24.0028 9.04806 24.4877C9.14452 24.9727 9.38262 25.4181 9.73226 25.7678C10.0819 26.1174 10.5273 26.3555 11.0123 26.452C11.4972 26.5484 11.9999 26.4989 12.4567 26.3097C12.9135 26.1205 13.304 25.8 13.5787 25.3889C13.8534 24.9778 14 24.4944 14 24C13.9992 23.3372 13.7356 22.7018 13.2669 22.2331C12.7982 21.7644 12.1628 21.5008 11.5 21.5ZM11.5 25.5C11.2034 25.5 10.9133 25.412 10.6667 25.2472C10.42 25.0824 10.2277 24.8481 10.1142 24.574C10.0007 24.2999 9.97097 23.9983 10.0288 23.7074C10.0867 23.4164 10.2296 23.1491 10.4394 22.9393C10.6491 22.7296 10.9164 22.5867 11.2074 22.5288C11.4984 22.4709 11.8 22.5006 12.074 22.6142C12.3481 22.7277 12.5824 22.92 12.7472 23.1666C12.9121 23.4133 13 23.7033 13 24C12.9996 24.3977 12.8415 24.779 12.5602 25.0602C12.279 25.3414 11.8977 25.4996 11.5 25.5ZM8.50002 14C8.99448 14 9.47783 13.8534 9.88895 13.5787C10.3001 13.304 10.6205 12.9135 10.8097 12.4567C10.9989 11.9999 11.0484 11.4972 10.952 11.0123C10.8555 10.5273 10.6174 10.0819 10.2678 9.73222C9.91816 9.38259 9.4727 9.14449 8.98775 9.04803C8.5028 8.95156 8.00013 9.00107 7.54331 9.19029C7.0865 9.37951 6.69605 9.69994 6.42135 10.1111C6.14665 10.5222 6.00002 11.0055 6.00002 11.5C6.00082 12.1628 6.26446 12.7982 6.73313 13.2669C7.2018 13.7356 7.83723 13.9992 8.50002 14ZM8.50002 9.99999C8.79669 9.99999 9.0867 10.088 9.33338 10.2528C9.58005 10.4176 9.77231 10.6519 9.88584 10.926C9.99937 11.2001 10.0291 11.5017 9.9712 11.7926C9.91332 12.0836 9.77046 12.3509 9.56068 12.5607C9.3509 12.7704 9.08363 12.9133 8.79266 12.9712C8.50169 13.029 8.20009 12.9993 7.926 12.8858C7.65191 12.7723 7.41764 12.58 7.25282 12.3333C7.088 12.0867 7.00002 11.7967 7.00002 11.5C7.00042 11.1023 7.15858 10.721 7.4398 10.4398C7.72102 10.1586 8.10232 10.0004 8.50002 9.99999ZM15 10.5C15.4945 10.5 15.9778 10.3534 16.3889 10.0787C16.8001 9.80396 17.1205 9.41352 17.3097 8.9567C17.4989 8.49989 17.5484 7.99722 17.452 7.51227C17.3555 7.02731 17.1174 6.58186 16.7678 6.23222C16.4182 5.88259 15.9727 5.64449 15.4877 5.54803C15.0028 5.45156 14.5001 5.50107 14.0433 5.69029C13.5865 5.87951 13.1961 6.19994 12.9213 6.61107C12.6466 7.02219 12.5 7.50554 12.5 7.99999C12.5008 8.66279 12.7645 9.29821 13.2331 9.76688C13.7018 10.2356 14.3372 10.4992 15 10.5ZM15 6.49999C15.2967 6.49999 15.5867 6.58797 15.8334 6.75279C16.0801 6.91761 16.2723 7.15188 16.3858 7.42597C16.4994 7.70006 16.5291 8.00166 16.4712 8.29263C16.4133 8.5836 16.2705 8.85087 16.0607 9.06065C15.8509 9.27043 15.5836 9.41329 15.2927 9.47117C15.0017 9.52905 14.7001 9.49934 14.426 9.38581C14.1519 9.27228 13.9176 9.08002 13.7528 8.83335C13.588 8.58667 13.5 8.29666 13.5 7.99999C13.5004 7.60229 13.6586 7.22099 13.9398 6.93977C14.221 6.65855 14.6023 6.50039 15 6.49999ZM30.6815 2.31849C29.399 1.03599 25.575 3.99999 23.229 6.20499C21.5716 4.79959 19.5993 3.81512 17.4798 3.33524C15.3604 2.85536 13.1564 2.89426 11.0552 3.44863C8.95401 4.003 7.01771 5.05645 5.41086 6.51946C3.80401 7.98247 2.57412 9.81179 1.82571 11.8519C1.07729 13.8921 0.832482 16.0828 1.11208 18.2378C1.39168 20.3929 2.18742 22.4485 3.43168 24.2302C4.67593 26.0118 6.33192 27.4667 8.25891 28.4712C10.1859 29.4757 12.3269 30.0002 14.5 30C15.926 30 17.045 29.5105 17.573 28.657C17.9045 28.121 18.152 27.1855 17.4475 25.7765C17.1973 25.3205 17.064 24.8096 17.0595 24.2895C17.055 23.7694 17.1793 23.2563 17.4215 22.796C17.945 21.948 19.01 21.5 20.5 21.5C24.2085 21.5 28 20.906 28 16.5C27.9972 14.2918 27.4528 12.1179 26.4145 10.169C28.636 7.88399 32.0395 3.67749 30.6815 2.31849ZM29.975 3.02499C30.288 3.36249 29.1145 6.05999 25.4155 9.75849C24.5164 10.6607 23.5634 11.5074 22.5615 12.294C22.0861 11.5473 21.4527 10.9139 20.706 10.4385C21.4926 9.43666 22.3393 8.48357 23.2415 7.58449C26.94 3.88599 29.638 2.71349 29.975 3.02499ZM19.0625 12.944C19.366 12.3499 19.7152 11.7804 20.107 11.2405C20.7793 11.6548 21.3452 12.2207 21.7595 12.893C21.2196 13.2848 20.6501 13.634 20.056 13.9375C19.8077 13.5328 19.4673 13.1924 19.0625 12.944ZM19.5 15.5C19.5 16.6825 18.268 18 16.5 18C15.4207 18.0468 14.3633 17.6857 13.538 16.9885C14.596 16.7595 15.0725 15.865 15.473 15.113C16.006 14.113 16.3885 13.5 17.5 13.5C18.0303 13.5005 18.5387 13.7114 18.9137 14.0864C19.2886 14.4613 19.4995 14.9697 19.5 15.5ZM20.5 20.5C18.1565 20.5 17.07 21.4625 16.571 22.27C16.2354 22.8742 16.0578 23.5533 16.0545 24.2444C16.0513 24.9355 16.2226 25.6162 16.5525 26.2235C16.953 27.0235 17.01 27.666 16.7225 28.132C16.3855 28.675 15.555 29 14.5 29C12.4904 29.0034 10.5095 28.5222 8.72541 27.5972C6.94129 26.6722 5.4065 25.3307 4.25113 23.6864C3.09577 22.042 2.3539 20.1434 2.08841 18.1513C1.82293 16.1593 2.04165 14.1326 2.72604 12.2431C3.41044 10.3536 4.54032 8.65691 6.01991 7.29695C7.49951 5.93699 9.28519 4.95382 11.2256 4.43078C13.166 3.90775 15.2039 3.86027 17.1665 4.29237C19.1292 4.72447 20.9587 5.62341 22.5 6.91299C20.475 8.94299 18.885 11.0115 18.134 12.569C17.9257 12.5235 17.7132 12.5004 17.5 12.5C15.7315 12.5 15.099 13.688 14.591 14.6425C14.0445 15.6685 13.707 16.1935 12.582 16.007C12.4911 15.9918 12.3977 16.0021 12.3123 16.0367C12.2268 16.0713 12.1526 16.1289 12.0978 16.203C12.043 16.2772 12.0098 16.365 12.0018 16.4569C11.9938 16.5487 12.0113 16.641 12.0525 16.7235C12.099 16.8165 13.2285 19 16.5 19C18.8925 19 20.5 17.19 20.5 15.5C20.4996 15.2868 20.4765 15.0743 20.431 14.866C22.3624 13.8088 24.1279 12.4735 25.671 10.903C26.5432 12.64 26.9982 14.5564 27 16.5C27 19.3785 25.1775 20.5 20.5 20.5Z" stroke="white" stroke-width="0.8" mask="url(#path-1-outside-1_13_1775)"/>
</svg>
